<svg xmlns="http://www.w3.org/2000/svg" xmlns:xlink="http://www.w3.org/1999/xlink" width="960" height="720" viewBox="0 0 960 720">
    <defs>
        <path id="2tvpcnmc8a" d="M0 0h120v120H0z"/>
        <path id="ji4opi6jyc" d="M0 0h120v120H0z"/>
        <path id="ju00wm84pe" d="M0 0h120v120H0z"/>
        <path id="dnpjwlz6qg" d="M0 0h120v120H0z"/>
        <path id="yij94x4hzi" d="M0 0h120v120H0z"/>
        <path id="052g4bj3zk" d="M0 0h120v120H0z"/>
        <path id="mk1zueib0m" d="M0 0h120v120H0z"/>
        <path id="qh8c3lpjmo" d="M0 0h120v120H0z"/>
        <path id="th5hdg2kcq" d="M0 0h120v120H0z"/>
        <path id="lqtc2gbcns" d="M0 0h120v120H0z"/>
        <path id="ojz69ash2u" d="M0 0h120v120H0z"/>
        <path id="8ei0e9rqqw" d="M0 0h120v120H0z"/>
        <path id="cpqoobry8x" d="M0 0h120v120H0z"/>
        <path id="nexklpuonz" d="M0 0h120v120H0z"/>
        <path id="h6003abnjB" d="M0 0h120v120H0z"/>
        <path id="zrgoq5qt4D" d="M0 0h120v120H0z"/>
        <path id="vuwm5z6ktF" d="M0 0h120v120H0z"/>
        <path id="1dv9l4rrjG" d="M0 0h120v120H0z"/>
        <path id="lbg93pmeyH" d="M0 0h120v120H0z"/>
        <path id="6pptnwqifI" d="M0 0h120v120H0z"/>
        <path id="b3l7wbjdtK" d="M0 0h120v120H0z"/>
        <path id="ocqztyhecM" d="M0 0h120v120H0z"/>
        <path id="hdv1n3wg3O" d="M0 0h120v120H0z"/>
        <path id="3k1flhcxvQ" d="M0 0h120v120H0z"/>
        <path id="fac8jgqi1S" d="M0 0h120v120H0z"/>
        <path id="v9skiomqrU" d="M0 0h120v120H0z"/>
        <path id="4f2c824raW" d="M0 0h120v120H0z"/>
        <path id="hlo8rllmfY" d="M0 0h120v120H0z"/>
        <path id="ha12v3f5baa" d="M0 0h120v120H0z"/>
        <path id="3yrn583iwac" d="M0 0h120v120H0z"/>
        <path id="6g4mogsfiae" d="M0 0h120v120H0z"/>
        <path id="7a2g74xx6ag" d="M0 0h120v120H0z"/>
        <path id="v6p1oucs5ai" d="M0 0h120v120H0z"/>
        <path id="hpyluaos7ak" d="M0 0h120v120H0z"/>
        <path id="s68yinn5lam" d="M0 0h120v120H0z"/>
        <path id="ogbl3ufrxao" d="M0 0h120v120H0z"/>
        <path id="rpxia5w8raq" d="M0 0h120v120H0z"/>
        <path id="pfjjtsjaias" d="M0 0h120v120H0z"/>
        <path id="h76ysi4a7au" d="M0 0h120v120H0z"/>
        <path id="41762m948aw" d="M0 0h120v120H0z"/>
        <path id="bdc0cbd1tay" d="M0 0h120v120H0z"/>
        <path id="5kc39eg2saA" d="M0 0h120v120H0z"/>
        <path id="aar2mjr56aC" d="M0 0h120v120H0z"/>
        <path id="jd1bk6siwaE" d="M0 0h120v120H0z"/>
        <path id="h570x92u5aG" d="M0 0h120v120H0z"/>
        <path id="77vf4pbwzaI" d="M0 0h120v120H0z"/>
        <path id="m9rqpiw5vaK" d="M0 0h120v120H0z"/>
        <path id="ol8rwybr1aM" d="M0 0h120v120H0z"/>
    </defs>
    <g fill="none" fill-rule="evenodd">
        <path fill="#F3F3F3" d="M0 0h960v720H0z"/>
        <g transform="translate(120 480)">
            <mask id="g234uyhi4b" fill="#fff">
                <use xlink:href="#2tvpcnmc8a"/>
            </mask>
            <use stroke="#3F3F3F" xlink:href="#2tvpcnmc8a"/>
            <circle stroke="#3F3F3F" mask="url(#g234uyhi4b)" cx="120" cy="120" r="120"/>
        </g>
        <g transform="matrix(-1 0 0 1 120 480)">
            <mask id="ahan1jcufd" fill="#fff">
                <use xlink:href="#ji4opi6jyc"/>
            </mask>
            <use stroke="#3F3F3F" xlink:href="#ji4opi6jyc"/>
            <circle stroke="#3F3F3F" mask="url(#ahan1jcufd)" cx="120" cy="120" r="120"/>
        </g>
        <g transform="translate(0 120)">
            <mask id="4kd6dg6kwf" fill="#fff">
                <use xlink:href="#ju00wm84pe"/>
            </mask>
            <use stroke="#3F3F3F" xlink:href="#ju00wm84pe"/>
            <circle stroke="#3F3F3F" mask="url(#4kd6dg6kwf)" cx="120" cy="120" r="120"/>
        </g>
        <g transform="rotate(180 180 300)">
            <mask id="w6119418yh" fill="#fff">
                <use xlink:href="#dnpjwlz6qg"/>
            </mask>
            <use stroke="#3F3F3F" xlink:href="#dnpjwlz6qg"/>
            <circle stroke="#3F3F3F" mask="url(#w6119418yh)" cx="120" cy="120" r="120"/>
        </g>
        <g transform="matrix(1 0 0 -1 0 360)">
            <mask id="hberjfmi6j" fill="#fff">
                <use xlink:href="#yij94x4hzi"/>
            </mask>
            <use stroke="#3F3F3F" xlink:href="#yij94x4hzi"/>
            <circle stroke="#3F3F3F" mask="url(#hberjfmi6j)" cx="120" cy="120" r="120"/>
        </g>
        <g transform="rotate(180 120 240)">
            <mask id="kjwuqdcgkl" fill="#fff">
                <use xlink:href="#052g4bj3zk"/>
            </mask>
            <use stroke="#3F3F3F" xlink:href="#052g4bj3zk"/>
            <circle stroke="#3F3F3F" mask="url(#kjwuqdcgkl)" cx="120" cy="120" r="120"/>
        </g>
        <g transform="translate(0 360)">
            <mask id="os5xek1t1n" fill="#fff">
                <use xlink:href="#mk1zueib0m"/>
            </mask>
            <use stroke="#3F3F3F" xlink:href="#mk1zueib0m"/>
            <circle stroke="#3F3F3F" mask="url(#os5xek1t1n)" cx="120" cy="120" r="120"/>
        </g>
        <g transform="translate(120 120)">
            <mask id="56le6jrx9p" fill="#fff">
                <use xlink:href="#qh8c3lpjmo"/>
            </mask>
            <use stroke="#3F3F3F" xlink:href="#qh8c3lpjmo"/>
            <circle stroke="#3F3F3F" mask="url(#56le6jrx9p)" cx="120" cy="120" r="120"/>
        </g>
        <g transform="matrix(1 0 0 -1 120 360)">
            <mask id="axuy9d72pr" fill="#fff">
                <use xlink:href="#th5hdg2kcq"/>
            </mask>
            <use stroke="#3F3F3F" xlink:href="#th5hdg2kcq"/>
            <circle stroke="#3F3F3F" mask="url(#axuy9d72pr)" cx="120" cy="120" r="120"/>
        </g>
        <g transform="translate(360 120)">
            <mask id="nzj6jrd3ut" fill="#fff">
                <use xlink:href="#lqtc2gbcns"/>
            </mask>
            <use stroke="#3F3F3F" xlink:href="#lqtc2gbcns"/>
            <circle stroke="#3F3F3F" mask="url(#nzj6jrd3ut)" cx="120" cy="120" r="120"/>
        </g>
        <g transform="matrix(-1 0 0 1 960 0)">
            <mask id="j8cscfglmv" fill="#fff">
                <use xlink:href="#ojz69ash2u"/>
            </mask>
            <use stroke="#3F3F3F" xlink:href="#ojz69ash2u"/>
            <circle stroke="#3F3F3F" mask="url(#j8cscfglmv)" cx="120" cy="120" r="120"/>
        </g>
        <use stroke="#3F3F3F" xlink:href="#8ei0e9rqqw" transform="matrix(-1 0 0 1 480 240)"/>
        <g transform="rotate(180 180 240)">
            <mask id="ohg5lmuqny" fill="#fff">
                <use xlink:href="#cpqoobry8x"/>
            </mask>
            <use stroke="#3F3F3F" xlink:href="#cpqoobry8x"/>
            <circle stroke="#3F3F3F" mask="url(#ohg5lmuqny)" cx="120" cy="120" r="120"/>
        </g>
        <g transform="translate(840 480)">
            <mask id="f4f62nc5bA" fill="#fff">
                <use xlink:href="#nexklpuonz"/>
            </mask>
            <use stroke="#3F3F3F" xlink:href="#nexklpuonz"/>
            <circle stroke="#3F3F3F" mask="url(#f4f62nc5bA)" cx="120" cy="120" r="120"/>
        </g>
        <g transform="matrix(-1 0 0 1 840 600)">
            <mask id="i8qwp5wthC" fill="#fff">
                <use xlink:href="#h6003abnjB"/>
            </mask>
            <use stroke="#3F3F3F" xlink:href="#h6003abnjB"/>
            <circle stroke="#3F3F3F" mask="url(#i8qwp5wthC)" cx="120" cy="120" r="120"/>
        </g>
        <g transform="matrix(1 0 0 -1 600 720)">
            <mask id="m5xfbxubqE" fill="#fff">
                <use xlink:href="#zrgoq5qt4D"/>
            </mask>
            <use stroke="#3F3F3F" fill-rule="nonzero" xlink:href="#zrgoq5qt4D"/>
            <circle stroke="#3F3F3F" mask="url(#m5xfbxubqE)" cx="120" cy="120" r="120"/>
        </g>
        <use stroke="#3F3F3F" xlink:href="#vuwm5z6ktF" transform="translate(480 240)"/>
        <use stroke="#3F3F3F" xlink:href="#1dv9l4rrjG" transform="matrix(1 0 0 -1 480 480)"/>
        <use stroke="#3F3F3F" xlink:href="#lbg93pmeyH" transform="matrix(-1 0 0 1 480 360)"/>
        <g transform="matrix(1 0 0 -1 360 600)">
            <mask id="esrz4zvpaJ" fill="#fff">
                <use xlink:href="#6pptnwqifI"/>
            </mask>
            <use stroke="#3F3F3F" xlink:href="#6pptnwqifI"/>
            <circle stroke="#3F3F3F" mask="url(#esrz4zvpaJ)" cx="120" cy="120" r="120"/>
        </g>
        <g transform="translate(120 600)">
            <mask id="o9qmvnfeuL" fill="#fff">
                <use xlink:href="#b3l7wbjdtK"/>
            </mask>
            <use stroke="#3F3F3F" xlink:href="#b3l7wbjdtK"/>
            <circle stroke="#3F3F3F" mask="url(#o9qmvnfeuL)" cx="120" cy="120" r="120"/>
        </g>
        <g transform="translate(600 240)">
            <mask id="ud2wjymr3N" fill="#fff">
                <use xlink:href="#ocqztyhecM"/>
            </mask>
            <use stroke="#3F3F3F" xlink:href="#ocqztyhecM"/>
            <circle stroke="#3F3F3F" mask="url(#ud2wjymr3N)" cx="120" cy="120" r="120"/>
        </g>
        <g transform="matrix(1 0 0 -1 600 480)">
            <mask id="avh5lwb2iP" fill="#fff">
                <use xlink:href="#hdv1n3wg3O"/>
            </mask>
            <use stroke="#3F3F3F" xlink:href="#hdv1n3wg3O"/>
            <circle stroke="#3F3F3F" mask="url(#avh5lwb2iP)" cx="120" cy="120" r="120"/>
        </g>
        <g transform="matrix(-1 0 0 1 720 120)">
            <mask id="0dozhg5huR" fill="#fff">
                <use xlink:href="#3k1flhcxvQ"/>
            </mask>
            <circle stroke="#3F3F3F" mask="url(#0dozhg5huR)" cx="120" cy="120" r="120"/>
        </g>
        <g transform="rotate(180 60 360)">
            <mask id="4jady08jiT" fill="#fff">
                <use xlink:href="#fac8jgqi1S"/>
            </mask>
            <use stroke="#3F3F3F" xlink:href="#fac8jgqi1S"/>
            <circle stroke="#3F3F3F" mask="url(#4jady08jiT)" cx="120" cy="120" r="120"/>
        </g>
        <g transform="translate(720 120)">
            <mask id="bdu1sximbV" fill="#fff">
                <use xlink:href="#v9skiomqrU"/>
            </mask>
            <use stroke="#3F3F3F" xlink:href="#v9skiomqrU"/>
            <circle stroke="#3F3F3F" mask="url(#bdu1sximbV)" cx="120" cy="120" r="120"/>
        </g>
        <g transform="translate(840 120)">
            <mask id="wqeatsdunX" fill="#fff">
                <use xlink:href="#4f2c824raW"/>
            </mask>
            <use stroke="#3F3F3F" xlink:href="#4f2c824raW"/>
            <circle stroke="#3F3F3F" mask="url(#wqeatsdunX)" cx="120" cy="120" r="120"/>
        </g>
        <g transform="matrix(-1 0 0 1 360 600)">
            <mask id="3e8z07po8Z" fill="#fff">
                <use xlink:href="#hlo8rllmfY"/>
            </mask>
            <use stroke="#3F3F3F" xlink:href="#hlo8rllmfY"/>
            <circle stroke="#3F3F3F" mask="url(#3e8z07po8Z)" cx="120" cy="120" r="120"/>
        </g>
        <g transform="translate(360 600)">
            <mask id="6pikagqkdab" fill="#fff">
                <use xlink:href="#ha12v3f5baa"/>
            </mask>
            <use stroke="#3F3F3F" xlink:href="#ha12v3f5baa"/>
            <circle stroke="#3F3F3F" mask="url(#6pikagqkdab)" cx="120" cy="120" r="120"/>
        </g>
        <g transform="translate(600 480)">
            <mask id="x49c4m1t2ad" fill="#fff">
                <use xlink:href="#3yrn583iwac"/>
            </mask>
            <use stroke="#3F3F3F" xlink:href="#3yrn583iwac"/>
            <circle stroke="#3F3F3F" mask="url(#x49c4m1t2ad)" cx="120" cy="120" r="120"/>
        </g>
        <g transform="matrix(1 0 0 -1 840 360)">
            <mask id="qvs6bw1h6af" fill="#fff">
                <use xlink:href="#6g4mogsfiae"/>
            </mask>
            <use stroke="#3F3F3F" xlink:href="#6g4mogsfiae"/>
            <circle stroke="#3F3F3F" mask="url(#qvs6bw1h6af)" cx="120" cy="120" r="120"/>
        </g>
        <g transform="rotate(180 480 240)">
            <mask id="zyipxd3k7ah" fill="#fff">
                <use xlink:href="#7a2g74xx6ag"/>
            </mask>
            <use stroke="#3F3F3F" xlink:href="#7a2g74xx6ag"/>
            <circle stroke="#3F3F3F" mask="url(#zyipxd3k7ah)" cx="120" cy="120" r="120"/>
        </g>
        <g transform="matrix(-1 0 0 1 600 480)">
            <mask id="6r1i2pq3zaj" fill="#fff">
                <use xlink:href="#v6p1oucs5ai"/>
            </mask>
            <use stroke="#3F3F3F" xlink:href="#v6p1oucs5ai"/>
            <circle stroke="#3F3F3F" mask="url(#6r1i2pq3zaj)" cx="120" cy="120" r="120"/>
        </g>
        <g transform="rotate(180 300 360)">
            <mask id="h2jljg6nhal" fill="#fff">
                <use xlink:href="#hpyluaos7ak"/>
            </mask>
            <use stroke="#3F3F3F" xlink:href="#hpyluaos7ak"/>
            <circle stroke="#3F3F3F" mask="url(#h2jljg6nhal)" cx="120" cy="120" r="120"/>
        </g>
        <g transform="rotate(180 420 300)">
            <mask id="yln48v01pan" fill="#fff">
                <use xlink:href="#s68yinn5lam"/>
            </mask>
            <use stroke="#3F3F3F" xlink:href="#s68yinn5lam"/>
            <circle stroke="#3F3F3F" mask="url(#yln48v01pan)" cx="120" cy="120" r="120"/>
        </g>
        <g transform="translate(720 240)">
            <mask id="qqbdmh8fjap" fill="#fff">
                <use xlink:href="#ogbl3ufrxao"/>
            </mask>
            <use stroke="#3F3F3F" xlink:href="#ogbl3ufrxao"/>
            <circle stroke="#3F3F3F" mask="url(#qqbdmh8fjap)" cx="120" cy="120" r="120"/>
        </g>
        <g transform="matrix(1 0 0 -1 720 480)">
            <mask id="p6vzjhbmear" fill="#fff">
                <use xlink:href="#rpxia5w8raq"/>
            </mask>
            <use stroke="#3F3F3F" xlink:href="#rpxia5w8raq"/>
            <circle stroke="#3F3F3F" mask="url(#p6vzjhbmear)" cx="120" cy="120" r="120"/>
        </g>
        <g transform="rotate(180 480 360)">
            <mask id="orsvbdbhmat" fill="#fff">
                <use xlink:href="#pfjjtsjaias"/>
            </mask>
            <use stroke="#3F3F3F" fill-rule="nonzero" xlink:href="#pfjjtsjaias"/>
            <circle stroke="#3F3F3F" mask="url(#orsvbdbhmat)" cx="120" cy="120" r="120"/>
        </g>
        <g transform="matrix(-1 0 0 1 600 0)">
            <mask id="96t5v2szjav" fill="#fff">
                <use xlink:href="#h76ysi4a7au"/>
            </mask>
            <use stroke="#3F3F3F" xlink:href="#h76ysi4a7au"/>
            <circle stroke="#3F3F3F" mask="url(#96t5v2szjav)" cx="120" cy="120" r="120"/>
        </g>
        <g transform="rotate(180 300 120)">
            <mask id="9tm6ichqxax" fill="#fff">
                <use xlink:href="#41762m948aw"/>
            </mask>
            <use stroke="#3F3F3F" xlink:href="#41762m948aw"/>
            <circle stroke="#3F3F3F" mask="url(#9tm6ichqxax)" cx="120" cy="120" r="120"/>
        </g>
        <g transform="matrix(-1 0 0 1 840 0)">
            <mask id="en6dor8dpaz" fill="#fff">
                <use xlink:href="#bdc0cbd1tay"/>
            </mask>
            <use stroke="#3F3F3F" xlink:href="#bdc0cbd1tay"/>
            <circle stroke="#3F3F3F" mask="url(#en6dor8dpaz)" cx="120" cy="120" r="120"/>
        </g>
        <g transform="matrix(-1 0 0 1 720 0)">
            <mask id="4bfg23mqbaB" fill="#fff">
                <use xlink:href="#5kc39eg2saA"/>
            </mask>
            <use stroke="#3F3F3F" xlink:href="#5kc39eg2saA"/>
            <circle stroke="#3F3F3F" mask="url(#4bfg23mqbaB)" cx="120" cy="120" r="120"/>
        </g>
        <g transform="translate(240 120)">
            <mask id="ns64abqxhaD" fill="#fff">
                <use xlink:href="#aar2mjr56aC"/>
            </mask>
            <use stroke="#3F3F3F" xlink:href="#aar2mjr56aC"/>
            <circle stroke="#3F3F3F" mask="url(#ns64abqxhaD)" cx="120" cy="120" r="120"/>
        </g>
        <g transform="translate(240 240)">
            <mask id="757ysvjtwaF" fill="#fff">
                <use xlink:href="#jd1bk6siwaE"/>
            </mask>
            <use stroke="#3F3F3F" xlink:href="#jd1bk6siwaE"/>
            <circle stroke="#3F3F3F" mask="url(#757ysvjtwaF)" cx="120" cy="120" r="120"/>
        </g>
        <mask id="41b4gy29qaH" fill="#fff">
            <use xlink:href="#h570x92u5aG"/>
        </mask>
        <use stroke="#3F3F3F" xlink:href="#h570x92u5aG"/>
        <circle stroke="#3F3F3F" mask="url(#41b4gy29qaH)" cx="120" cy="120" r="120"/>
        <g transform="matrix(1 0 0 -1 120 120)">
            <mask id="476y8q8v1aJ" fill="#fff">
                <use xlink:href="#77vf4pbwzaI"/>
            </mask>
            <use stroke="#3F3F3F" xlink:href="#77vf4pbwzaI"/>
            <circle stroke="#3F3F3F" mask="url(#476y8q8v1aJ)" cx="120" cy="120" r="120"/>
        </g>
        <g transform="matrix(1 0 0 -1 240 120)">
            <mask id="kz926uynoaL" fill="#fff">
                <use xlink:href="#m9rqpiw5vaK"/>
            </mask>
            <use stroke="#3F3F3F" xlink:href="#m9rqpiw5vaK"/>
            <circle stroke="#3F3F3F" mask="url(#kz926uynoaL)" cx="120" cy="120" r="120"/>
        </g>
        <g transform="matrix(1 0 0 -1 360 120)">
            <mask id="xwcszjd54aN" fill="#fff">
                <use xlink:href="#ol8rwybr1aM"/>
            </mask>
            <use stroke="#3F3F3F" xlink:href="#ol8rwybr1aM"/>
            <circle stroke="#3F3F3F" mask="url(#xwcszjd54aN)" cx="120" cy="120" r="120"/>
        </g>
        <g transform="translate(360 240)">
            <circle stroke="#3F3F3F" fill="#FFF" fill-rule="nonzero" cx="120" cy="120" r="120"/>
            <path d="m141.3 120 18.9-18.9c2.4-2.4 2.4-6 0-8.4l-12.6-12.6c-2.4-2.4-6-2.4-8.4 0L120 98.7l-18.9-18.9c-2.4-2.4-6-2.4-8.4 0L79.8 92.4c-2.4 2.4-2.4 6 0 8.4L98.7 120 78 140.7V162h21.3l20.7-20.7 18.9 18.9c2.4 2.4 6 2.4 8.4 0l12.6-12.6c2.4-2.4 2.4-6 0-8.4L141.3 120zm2.1-36L156 96.6l-18.9 18.9-12.6-12.6L143.4 84zm-46.8 72H84v-12.6l18.9-18.9 12.6 12.6L96.6 156zm46.8 0L84 96.6 96.6 84l10.5 10.5-6.3 6.3 4.2 4.2 6.3-6.3 12.6 12.6-6.3 6.3 4.2 4.2 6.3-6.3 12.6 12.6-5.7 6.6 4.2 4.2 6.3-6.3 10.5 10.5-12.6 12.9z" fill="#000" fill-rule="nonzero"/>
            <path d="M72 72h96v96H72z"/>
        </g>
    </g>
</svg>