<?xml version="1.0" encoding="UTF-8"?>
<!DOCTYPE svg PUBLIC "-//W3C//DTD SVG 1.1//EN" "http://www.w3.org/Graphics/SVG/1.1/DTD/svg11.dtd">
<svg version="1.1" xmlns="http://www.w3.org/2000/svg" xmlns:xlink="http://www.w3.org/1999/xlink" x="0" y="0" width="2190" height="720" viewBox="0, 0, 2190, 720">
  <g id="Background">
    <rect x="0" y="0" width="2190" height="720" fill="#FFFFFF"/>
  </g>
  <defs>
    <linearGradient id="Gradient_1" gradientUnits="userSpaceOnUse" x1="1580" y1="360" x2="2190" y2="360">
      <stop offset="0" stop-color="#FFFFFF" stop-opacity="0"/>
      <stop offset="1" stop-color="#F3F3F3"/>
    </linearGradient>
    <linearGradient id="Gradient_2" gradientUnits="userSpaceOnUse" x1="0" y1="360" x2="620" y2="360">
      <stop offset="0" stop-color="#F3F3F3"/>
      <stop offset="1" stop-color="#F3F3F3" stop-opacity="0"/>
    </linearGradient>
  </defs>
  <g id="Layer_1">
    <path d="M620,0 L1580,0 L1580,720 L620,720 z" fill="#F3F3F3"/>
    <g>
      <path d="M740,480 L860,480 L860,600 L740,600 z" fill-opacity="0" stroke="#3F3F3F" stroke-width="1" id="2tvpcnmc8a"/>
      <path d="M980,600 C980,666.274 926.274,720 860,720 C793.726,720 740,666.274 740,600 C740,533.726 793.726,480 860,480 C926.274,480 980,533.726 980,600 z" fill-opacity="0" stroke="#3F3F3F" stroke-width="1"/>
    </g>
    <g>
      <path d="M740,480 L620,480 L620,600 L740,600 z" fill-opacity="0" stroke="#3F3F3F" stroke-width="1" id="ji4opi6jyc"/>
      <path d="M500,600 C500,666.274 553.726,720 620,720 C686.274,720 740,666.274 740,600 C740,533.726 686.274,480 620,480 C553.726,480 500,533.726 500,600 z" fill-opacity="0" stroke="#3F3F3F" stroke-width="1"/>
    </g>
    <g>
      <path d="M620,120 L740,120 L740,240 L620,240 z" fill-opacity="0" stroke="#3F3F3F" stroke-width="1" id="ju00wm84pe"/>
      <path d="M860,240 C860,306.274 806.274,360 740,360 C673.726,360 620,306.274 620,240 C620,173.726 673.726,120 740,120 C806.274,120 860,173.726 860,240 z" fill-opacity="0" stroke="#3F3F3F" stroke-width="1"/>
    </g>
    <g>
      <path d="M980,600 L860,600 L860,480 L980,480 z" fill-opacity="0" stroke="#3F3F3F" stroke-width="1" id="dnpjwlz6qg"/>
      <path d="M740,480 C740,413.726 793.726,360 860,360 C926.274,360 980,413.726 980,480 C980,546.274 926.274,600 860,600 C793.726,600 740,546.274 740,480 z" fill-opacity="0" stroke="#3F3F3F" stroke-width="1"/>
    </g>
    <g>
      <path d="M620,360 L740,360 L740,240 L620,240 z" fill-opacity="0" stroke="#3F3F3F" stroke-width="1" id="yij94x4hzi"/>
      <path d="M860,240 C860,173.726 806.274,120 740,120 C673.726,120 620,173.726 620,240 C620,306.274 673.726,360 740,360 C806.274,360 860,306.274 860,240 z" fill-opacity="0" stroke="#3F3F3F" stroke-width="1"/>
    </g>
    <g>
      <path d="M860,480 L740,480 L740,360 L860,360 z" fill-opacity="0" stroke="#3F3F3F" stroke-width="1" id="052g4bj3zk"/>
      <path d="M620,360 C620,293.726 673.726,240 740,240 C806.274,240 860,293.726 860,360 C860,426.274 806.274,480 740,480 C673.726,480 620,426.274 620,360 z" fill-opacity="0" stroke="#3F3F3F" stroke-width="1"/>
    </g>
    <g>
      <path d="M620,360 L740,360 L740,480 L620,480 z" fill-opacity="0" stroke="#3F3F3F" stroke-width="1" id="mk1zueib0m"/>
      <path d="M860,480 C860,546.274 806.274,600 740,600 C673.726,600 620,546.274 620,480 C620,413.726 673.726,360 740,360 C806.274,360 860,413.726 860,480 z" fill-opacity="0" stroke="#3F3F3F" stroke-width="1"/>
    </g>
    <g>
      <path d="M740,120 L860,120 L860,240 L740,240 z" fill-opacity="0" stroke="#3F3F3F" stroke-width="1" id="qh8c3lpjmo"/>
      <path d="M980,240 C980,306.274 926.274,360 860,360 C793.726,360 740,306.274 740,240 C740,173.726 793.726,120 860,120 C926.274,120 980,173.726 980,240 z" fill-opacity="0" stroke="#3F3F3F" stroke-width="1"/>
    </g>
    <g>
      <path d="M740,360 L860,360 L860,240 L740,240 z" fill-opacity="0" stroke="#3F3F3F" stroke-width="1" id="th5hdg2kcq"/>
      <path d="M980,240 C980,173.726 926.274,120 860,120 C793.726,120 740,173.726 740,240 C740,306.274 793.726,360 860,360 C926.274,360 980,306.274 980,240 z" fill-opacity="0" stroke="#3F3F3F" stroke-width="1"/>
    </g>
    <g>
      <path d="M980,120 L1100,120 L1100,240 L980,240 z" fill-opacity="0" stroke="#3F3F3F" stroke-width="1" id="lqtc2gbcns"/>
      <path d="M1220,240 C1220,306.274 1166.274,360 1100,360 C1033.726,360 980,306.274 980,240 C980,173.726 1033.726,120 1100,120 C1166.274,120 1220,173.726 1220,240 z" fill-opacity="0" stroke="#3F3F3F" stroke-width="1"/>
    </g>
    <g>
      <path d="M1580,0 L1460,0 L1460,120 L1580,120 z" fill-opacity="0" stroke="#3F3F3F" stroke-width="1" id="ojz69ash2u"/>
      <path d="M1340,120 C1340,186.274 1393.726,240 1460,240 C1526.274,240 1580,186.274 1580,120 C1580,53.726 1526.274,0 1460,0 C1393.726,0 1340,53.726 1340,120 z" fill-opacity="0" stroke="#3F3F3F" stroke-width="1"/>
    </g>
    <path d="M1100,240 L980,240 L980,360 L1100,360 z" fill-opacity="0" stroke="#3F3F3F" stroke-width="1" id="8ei0e9rqqw"/>
    <g>
      <path d="M980,480 L860,480 L860,360 L980,360 z" fill-opacity="0" stroke="#3F3F3F" stroke-width="1" id="cpqoobry8x"/>
      <path d="M740,360 C740,293.726 793.726,240 860,240 C926.274,240 980,293.726 980,360 C980,426.274 926.274,480 860,480 C793.726,480 740,426.274 740,360 z" fill-opacity="0" stroke="#3F3F3F" stroke-width="1"/>
    </g>
    <g>
      <path d="M1460,480 L1580,480 L1580,600 L1460,600 z" fill-opacity="0" stroke="#3F3F3F" stroke-width="1" id="nexklpuonz"/>
      <path d="M1700,600 C1700,666.274 1646.274,720 1580,720 C1513.726,720 1460,666.274 1460,600 C1460,533.726 1513.726,480 1580,480 C1646.274,480 1700,533.726 1700,600 z" fill-opacity="0" stroke="#3F3F3F" stroke-width="1"/>
    </g>
    <g>
      <path d="M1460,600 L1340,600 L1340,720 L1460,720 z" fill-opacity="0" stroke="#3F3F3F" stroke-width="1" id="h6003abnjB"/>
      <path d="M1220,720 C1220,786.274 1273.726,840 1340,840 C1406.274,840 1460,786.274 1460,720 C1460,653.726 1406.274,600 1340,600 C1273.726,600 1220,653.726 1220,720 z" fill-opacity="0" stroke="#3F3F3F" stroke-width="1"/>
    </g>
    <g>
      <path d="M1220,720 L1340,720 L1340,600 L1220,600 z" fill-opacity="0" stroke="#3F3F3F" stroke-width="1" id="zrgoq5qt4D"/>
      <path d="M1460,600 C1460,533.726 1406.274,480 1340,480 C1273.726,480 1220,533.726 1220,600 C1220,666.274 1273.726,720 1340,720 C1406.274,720 1460,666.274 1460,600 z" fill-opacity="0" stroke="#3F3F3F" stroke-width="1"/>
    </g>
    <path d="M1100,240 L1220,240 L1220,360 L1100,360 z" fill-opacity="0" stroke="#3F3F3F" stroke-width="1" id="vuwm5z6ktF"/>
    <path d="M1100,480 L1220,480 L1220,360 L1100,360 z" fill-opacity="0" stroke="#3F3F3F" stroke-width="1" id="1dv9l4rrjG"/>
    <path d="M1100,360 L980,360 L980,480 L1100,480 z" fill-opacity="0" stroke="#3F3F3F" stroke-width="1" id="lbg93pmeyH"/>
    <g>
      <path d="M980,600 L1100,600 L1100,480 L980,480 z" fill-opacity="0" stroke="#3F3F3F" stroke-width="1" id="6pptnwqifI"/>
      <path d="M1220,480 C1220,413.726 1166.274,360 1100,360 C1033.726,360 980,413.726 980,480 C980,546.274 1033.726,600 1100,600 C1166.274,600 1220,546.274 1220,480 z" fill-opacity="0" stroke="#3F3F3F" stroke-width="1"/>
    </g>
    <g>
      <path d="M740,600 L860,600 L860,720 L740,720 z" fill-opacity="0" stroke="#3F3F3F" stroke-width="1" id="b3l7wbjdtK"/>
      <path d="M980,720 C980,786.274 926.274,840 860,840 C793.726,840 740,786.274 740,720 C740,653.726 793.726,600 860,600 C926.274,600 980,653.726 980,720 z" fill-opacity="0" stroke="#3F3F3F" stroke-width="1"/>
    </g>
    <g>
      <path d="M1220,240 L1340,240 L1340,360 L1220,360 z" fill-opacity="0" stroke="#3F3F3F" stroke-width="1" id="ocqztyhecM"/>
      <path d="M1460,360 C1460,426.274 1406.274,480 1340,480 C1273.726,480 1220,426.274 1220,360 C1220,293.726 1273.726,240 1340,240 C1406.274,240 1460,293.726 1460,360 z" fill-opacity="0" stroke="#3F3F3F" stroke-width="1"/>
    </g>
    <g>
      <path d="M1220,480 L1340,480 L1340,360 L1220,360 z" fill-opacity="0" stroke="#3F3F3F" stroke-width="1" id="hdv1n3wg3O"/>
      <path d="M1460,360 C1460,293.726 1406.274,240 1340,240 C1273.726,240 1220,293.726 1220,360 C1220,426.274 1273.726,480 1340,480 C1406.274,480 1460,426.274 1460,360 z" fill-opacity="0" stroke="#3F3F3F" stroke-width="1"/>
    </g>
    <path d="M1100,240 C1100,306.274 1153.726,360 1220,360 C1286.274,360 1340,306.274 1340,240 C1340,173.726 1286.274,120 1220,120 C1153.726,120 1100,173.726 1100,240 z" fill-opacity="0" stroke="#3F3F3F" stroke-width="1"/>
    <g>
      <path d="M740,720 L620,720 L620,600 L740,600 z" fill-opacity="0" stroke="#3F3F3F" stroke-width="1" id="fac8jgqi1S"/>
      <path d="M500,600 C500,533.726 553.726,480 620,480 C686.274,480 740,533.726 740,600 C740,666.274 686.274,720 620,720 C553.726,720 500,666.274 500,600 z" fill-opacity="0" stroke="#3F3F3F" stroke-width="1"/>
    </g>
    <g>
      <path d="M1340,120 L1460,120 L1460,240 L1340,240 z" fill-opacity="0" stroke="#3F3F3F" stroke-width="1" id="v9skiomqrU"/>
      <path d="M1580,240 C1580,306.274 1526.274,360 1460,360 C1393.726,360 1340,306.274 1340,240 C1340,173.726 1393.726,120 1460,120 C1526.274,120 1580,173.726 1580,240 z" fill-opacity="0" stroke="#3F3F3F" stroke-width="1"/>
    </g>
    <g>
      <path d="M1460,120 L1580,120 L1580,240 L1460,240 z" fill-opacity="0" stroke="#3F3F3F" stroke-width="1" id="4f2c824raW"/>
      <path d="M1700,240 C1700,306.274 1646.274,360 1580,360 C1513.726,360 1460,306.274 1460,240 C1460,173.726 1513.726,120 1580,120 C1646.274,120 1700,173.726 1700,240 z" fill-opacity="0" stroke="#3F3F3F" stroke-width="1"/>
    </g>
    <g>
      <path d="M980,600 L860,600 L860,720 L980,720 z" fill-opacity="0" stroke="#3F3F3F" stroke-width="1" id="hlo8rllmfY"/>
      <path d="M740,720 C740,786.274 793.726,840 860,840 C926.274,840 980,786.274 980,720 C980,653.726 926.274,600 860,600 C793.726,600 740,653.726 740,720 z" fill-opacity="0" stroke="#3F3F3F" stroke-width="1"/>
    </g>
    <g>
      <path d="M980,600 L1100,600 L1100,720 L980,720 z" fill-opacity="0" stroke="#3F3F3F" stroke-width="1" id="ha12v3f5baa"/>
      <path d="M1220,720 C1220,786.274 1166.274,840 1100,840 C1033.726,840 980,786.274 980,720 C980,653.726 1033.726,600 1100,600 C1166.274,600 1220,653.726 1220,720 z" fill-opacity="0" stroke="#3F3F3F" stroke-width="1"/>
    </g>
    <g>
      <path d="M1220,480 L1340,480 L1340,600 L1220,600 z" fill-opacity="0" stroke="#3F3F3F" stroke-width="1" id="3yrn583iwac"/>
      <path d="M1460,600 C1460,666.274 1406.274,720 1340,720 C1273.726,720 1220,666.274 1220,600 C1220,533.726 1273.726,480 1340,480 C1406.274,480 1460,533.726 1460,600 z" fill-opacity="0" stroke="#3F3F3F" stroke-width="1"/>
    </g>
    <g>
      <path d="M1460,360 L1580,360 L1580,240 L1460,240 z" fill-opacity="0" stroke="#3F3F3F" stroke-width="1" id="6g4mogsfiae"/>
      <path d="M1700,240 C1700,173.726 1646.274,120 1580,120 C1513.726,120 1460,173.726 1460,240 C1460,306.274 1513.726,360 1580,360 C1646.274,360 1700,306.274 1700,240 z" fill-opacity="0" stroke="#3F3F3F" stroke-width="1"/>
    </g>
    <g>
      <path d="M1580,480 L1460,480 L1460,360 L1580,360 z" fill-opacity="0" stroke="#3F3F3F" stroke-width="1" id="7a2g74xx6ag"/>
      <path d="M1340,360 C1340,293.726 1393.726,240 1460,240 C1526.274,240 1580,293.726 1580,360 C1580,426.274 1526.274,480 1460,480 C1393.726,480 1340,426.274 1340,360 z" fill-opacity="0" stroke="#3F3F3F" stroke-width="1"/>
    </g>
    <g>
      <path d="M1220,480 L1100,480 L1100,600 L1220,600 z" fill-opacity="0" stroke="#3F3F3F" stroke-width="1" id="v6p1oucs5ai"/>
      <path d="M980,600 C980,666.274 1033.726,720 1100,720 C1166.274,720 1220,666.274 1220,600 C1220,533.726 1166.274,480 1100,480 C1033.726,480 980,533.726 980,600 z" fill-opacity="0" stroke="#3F3F3F" stroke-width="1"/>
    </g>
    <g>
      <path d="M1220,720 L1100,720 L1100,600 L1220,600 z" fill-opacity="0" stroke="#3F3F3F" stroke-width="1" id="hpyluaos7ak"/>
      <path d="M980,600 C980,533.726 1033.726,480 1100,480 C1166.274,480 1220,533.726 1220,600 C1220,666.274 1166.274,720 1100,720 C1033.726,720 980,666.274 980,600 z" fill-opacity="0" stroke="#3F3F3F" stroke-width="1"/>
    </g>
    <g>
      <path d="M1460,600 L1340,600 L1340,480 L1460,480 z" fill-opacity="0" stroke="#3F3F3F" stroke-width="1" id="s68yinn5lam"/>
      <path d="M1220,480 C1220,413.726 1273.726,360 1340,360 C1406.274,360 1460,413.726 1460,480 C1460,546.274 1406.274,600 1340,600 C1273.726,600 1220,546.274 1220,480 z" fill-opacity="0" stroke="#3F3F3F" stroke-width="1"/>
    </g>
    <g>
      <path d="M1340,240 L1460,240 L1460,360 L1340,360 z" fill-opacity="0" stroke="#3F3F3F" stroke-width="1" id="ogbl3ufrxao"/>
      <path d="M1580,360 C1580,426.274 1526.274,480 1460,480 C1393.726,480 1340,426.274 1340,360 C1340,293.726 1393.726,240 1460,240 C1526.274,240 1580,293.726 1580,360 z" fill-opacity="0" stroke="#3F3F3F" stroke-width="1"/>
    </g>
    <g>
      <path d="M1340,480 L1460,480 L1460,360 L1340,360 z" fill-opacity="0" stroke="#3F3F3F" stroke-width="1" id="rpxia5w8raq"/>
      <path d="M1580,360 C1580,293.726 1526.274,240 1460,240 C1393.726,240 1340,293.726 1340,360 C1340,426.274 1393.726,480 1460,480 C1526.274,480 1580,426.274 1580,360 z" fill-opacity="0" stroke="#3F3F3F" stroke-width="1"/>
    </g>
    <g>
      <path d="M1580,720 L1460,720 L1460,600 L1580,600 z" fill-opacity="0" stroke="#3F3F3F" stroke-width="1" id="pfjjtsjaias"/>
      <path d="M1340,600 C1340,533.726 1393.726,480 1460,480 C1526.274,480 1580,533.726 1580,600 C1580,666.274 1526.274,720 1460,720 C1393.726,720 1340,666.274 1340,600 z" fill-opacity="0" stroke="#3F3F3F" stroke-width="1"/>
    </g>
    <g>
      <path d="M1220,0 L1100,0 L1100,120 L1220,120 z" fill-opacity="0" stroke="#3F3F3F" stroke-width="1" id="h76ysi4a7au"/>
      <path d="M980,120 C980,186.274 1033.726,240 1100,240 C1166.274,240 1220,186.274 1220,120 C1220,53.726 1166.274,0 1100,0 C1033.726,0 980,53.726 980,120 z" fill-opacity="0" stroke="#3F3F3F" stroke-width="1"/>
    </g>
    <g>
      <path d="M1220,240 L1100,240 L1100,120 L1220,120 z" fill-opacity="0" stroke="#3F3F3F" stroke-width="1" id="41762m948aw"/>
      <path d="M980,120 C980,53.726 1033.726,0 1100,0 C1166.274,-0 1220,53.726 1220,120 C1220,186.274 1166.274,240 1100,240 C1033.726,240 980,186.274 980,120 z" fill-opacity="0" stroke="#3F3F3F" stroke-width="1"/>
    </g>
    <g>
      <path d="M1460,0 L1340,0 L1340,120 L1460,120 z" fill-opacity="0" stroke="#3F3F3F" stroke-width="1" id="bdc0cbd1tay"/>
      <path d="M1220,120 C1220,186.274 1273.726,240 1340,240 C1406.274,240 1460,186.274 1460,120 C1460,53.726 1406.274,0 1340,0 C1273.726,0 1220,53.726 1220,120 z" fill-opacity="0" stroke="#3F3F3F" stroke-width="1"/>
    </g>
    <g>
      <path d="M1340,0 L1220,0 L1220,120 L1340,120 z" fill-opacity="0" stroke="#3F3F3F" stroke-width="1" id="5kc39eg2saA"/>
      <path d="M1100,120 C1100,186.274 1153.726,240 1220,240 C1286.274,240 1340,186.274 1340,120 C1340,53.726 1286.274,0 1220,0 C1153.726,0 1100,53.726 1100,120 z" fill-opacity="0" stroke="#3F3F3F" stroke-width="1"/>
    </g>
    <g>
      <path d="M860,120 L980,120 L980,240 L860,240 z" fill-opacity="0" stroke="#3F3F3F" stroke-width="1" id="aar2mjr56aC"/>
      <path d="M1100,240 C1100,306.274 1046.274,360 980,360 C913.726,360 860,306.274 860,240 C860,173.726 913.726,120 980,120 C1046.274,120 1100,173.726 1100,240 z" fill-opacity="0" stroke="#3F3F3F" stroke-width="1"/>
    </g>
    <g>
      <path d="M860,240 L980,240 L980,360 L860,360 z" fill-opacity="0" stroke="#3F3F3F" stroke-width="1" id="jd1bk6siwaE"/>
      <path d="M1100,360 C1100,426.274 1046.274,480 980,480 C913.726,480 860,426.274 860,360 C860,293.726 913.726,240 980,240 C1046.274,240 1100,293.726 1100,360 z" fill-opacity="0" stroke="#3F3F3F" stroke-width="1"/>
    </g>
    <path d="M620,0 L740,0 L740,120 L620,120 z" fill-opacity="0" stroke="#3F3F3F" stroke-width="1" id="h570x92u5aG"/>
    <path d="M860,120 C860,186.274 806.274,240 740,240 C673.726,240 620,186.274 620,120 C620,53.726 673.726,0 740,0 C806.274,0 860,53.726 860,120 z" fill-opacity="0" stroke="#3F3F3F" stroke-width="1"/>
    <g>
      <path d="M740,120 L860,120 L860,0 L740,0 z" fill-opacity="0" stroke="#3F3F3F" stroke-width="1" id="77vf4pbwzaI"/>
      <path d="M980,0 C980,-66.274 926.274,-120 860,-120 C793.726,-120 740,-66.274 740,0 C740,66.274 793.726,120 860,120 C926.274,120 980,66.274 980,0 z" fill-opacity="0" stroke="#3F3F3F" stroke-width="1"/>
    </g>
    <g>
      <path d="M860,120 L980,120 L980,0 L860,0 z" fill-opacity="0" stroke="#3F3F3F" stroke-width="1" id="m9rqpiw5vaK"/>
      <path d="M1100,0 C1100,-66.274 1046.274,-120 980,-120 C913.726,-120 860,-66.274 860,0 C860,66.274 913.726,120 980,120 C1046.274,120 1100,66.274 1100,0 z" fill-opacity="0" stroke="#3F3F3F" stroke-width="1"/>
    </g>
    <g>
      <path d="M980,120 L1100,120 L1100,0 L980,0 z" fill-opacity="0" stroke="#3F3F3F" stroke-width="1" id="ol8rwybr1aM"/>
      <path d="M1220,0 C1220,-66.274 1166.274,-120 1100,-120 C1033.726,-120 980,-66.274 980,0 C980,66.274 1033.726,120 1100,120 C1166.274,120 1220,66.274 1220,0 z" fill-opacity="0" stroke="#3F3F3F" stroke-width="1"/>
    </g>
    <g>
      <g>
        <path d="M1220,360 C1220,426.274 1166.274,480 1100,480 C1033.726,480 980,426.274 980,360 C980,293.726 1033.726,240 1100,240 C1166.274,240 1220,293.726 1220,360 z" fill="#FFFFFF"/>
        <path d="M1220,360 C1220,426.274 1166.274,480 1100,480 C1033.726,480 980,426.274 980,360 C980,293.726 1033.726,240 1100,240 C1166.274,240 1220,293.726 1220,360 z" fill-opacity="0" stroke="#3F3F3F" stroke-width="1"/>
      </g>
      <path d="M1121.3,360 L1140.2,341.1 C1142.6,338.7 1142.6,335.1 1140.2,332.7 L1127.6,320.1 C1125.2,317.7 1121.6,317.7 1119.2,320.1 L1100,338.7 L1081.1,319.8 C1078.7,317.4 1075.1,317.4 1072.7,319.8 L1059.8,332.4 C1057.4,334.8 1057.4,338.4 1059.8,340.8 L1078.7,360 L1058,380.7 L1058,402 L1079.3,402 L1100,381.3 L1118.9,400.2 C1121.3,402.6 1124.9,402.6 1127.3,400.2 L1139.9,387.6 C1142.3,385.2 1142.3,381.6 1139.9,379.2 L1121.3,360 z M1123.4,324 L1136,336.6 L1117.1,355.5 L1104.5,342.9 L1123.4,324 z M1076.6,396 L1064,396 L1064,383.4 L1082.9,364.5 L1095.5,377.1 L1076.6,396 z M1123.4,396 L1064,336.6 L1076.6,324 L1087.1,334.5 L1080.8,340.8 L1085,345 L1091.3,338.7 L1103.9,351.3 L1097.6,357.6 L1101.8,361.8 L1108.1,355.5 L1120.7,368.1 L1115,374.7 L1119.2,378.9 L1125.5,372.6 L1136,383.1 L1123.4,396 z" fill="#000000"/>
    </g>
    <path d="M1580,-0 L2190,-0 L2190,720 L1580,720 z" fill="#F3F3F3"/>
    <g>
      <path d="M1700,480 L1820,480 L1820,600 L1700,600 z" fill-opacity="0" stroke="#3F3F3F" stroke-width="1" id="2tvpcnmc8a"/>
      <path d="M1940,600 C1940,666.274 1886.274,720 1820,720 C1753.726,720 1700,666.274 1700,600 C1700,533.726 1753.726,480 1820,480 C1886.274,480 1940,533.726 1940,600 z" fill-opacity="0" stroke="#3F3F3F" stroke-width="1"/>
    </g>
    <g>
      <path d="M1700,480 L1580,480 L1580,600 L1700,600 z" fill-opacity="0" stroke="#3F3F3F" stroke-width="1" id="ji4opi6jyc"/>
      <path d="M1460,600 C1460,666.274 1513.726,720 1580,720 C1646.274,720 1700,666.274 1700,600 C1700,533.726 1646.274,480 1580,480 C1513.726,480 1460,533.726 1460,600 z" fill-opacity="0" stroke="#3F3F3F" stroke-width="1"/>
    </g>
    <g>
      <path d="M1580,120 L1700,120 L1700,240 L1580,240 z" fill-opacity="0" stroke="#3F3F3F" stroke-width="1" id="ju00wm84pe"/>
      <path d="M1820,240 C1820,306.274 1766.274,360 1700,360 C1633.726,360 1580,306.274 1580,240 C1580,173.726 1633.726,120 1700,120 C1766.274,120 1820,173.726 1820,240 z" fill-opacity="0" stroke="#3F3F3F" stroke-width="1"/>
    </g>
    <g>
      <path d="M1940,600 L1820,600 L1820,480 L1940,480 z" fill-opacity="0" stroke="#3F3F3F" stroke-width="1" id="dnpjwlz6qg"/>
      <path d="M1700,480 C1700,413.726 1753.726,360 1820,360 C1886.274,360 1940,413.726 1940,480 C1940,546.274 1886.274,600 1820,600 C1753.726,600 1700,546.274 1700,480 z" fill-opacity="0" stroke="#3F3F3F" stroke-width="1"/>
    </g>
    <g>
      <path d="M1580,360 L1700,360 L1700,240 L1580,240 z" fill-opacity="0" stroke="#3F3F3F" stroke-width="1" id="yij94x4hzi"/>
      <path d="M1820,240 C1820,173.726 1766.274,120 1700,120 C1633.726,120 1580,173.726 1580,240 C1580,306.274 1633.726,360 1700,360 C1766.274,360 1820,306.274 1820,240 z" fill-opacity="0" stroke="#3F3F3F" stroke-width="1"/>
    </g>
    <g>
      <path d="M1820,480 L1700,480 L1700,360 L1820,360 z" fill-opacity="0" stroke="#3F3F3F" stroke-width="1" id="052g4bj3zk"/>
      <path d="M1580,360 C1580,293.726 1633.726,240 1700,240 C1766.274,240 1820,293.726 1820,360 C1820,426.274 1766.274,480 1700,480 C1633.726,480 1580,426.274 1580,360 z" fill-opacity="0" stroke="#3F3F3F" stroke-width="1"/>
    </g>
    <g>
      <path d="M1580,360 L1700,360 L1700,480 L1580,480 z" fill-opacity="0" stroke="#3F3F3F" stroke-width="1" id="mk1zueib0m"/>
      <path d="M1820,480 C1820,546.274 1766.274,600 1700,600 C1633.726,600 1580,546.274 1580,480 C1580,413.726 1633.726,360 1700,360 C1766.274,360 1820,413.726 1820,480 z" fill-opacity="0" stroke="#3F3F3F" stroke-width="1"/>
    </g>
    <g>
      <path d="M1700,120 L1820,120 L1820,240 L1700,240 z" fill-opacity="0" stroke="#3F3F3F" stroke-width="1" id="qh8c3lpjmo"/>
      <path d="M1940,240 C1940,306.274 1886.274,360 1820,360 C1753.726,360 1700,306.274 1700,240 C1700,173.726 1753.726,120 1820,120 C1886.274,120 1940,173.726 1940,240 z" fill-opacity="0" stroke="#3F3F3F" stroke-width="1"/>
    </g>
    <g>
      <path d="M1700,360 L1820,360 L1820,240 L1700,240 z" fill-opacity="0" stroke="#3F3F3F" stroke-width="1" id="th5hdg2kcq"/>
      <path d="M1940,240 C1940,173.726 1886.274,120 1820,120 C1753.726,120 1700,173.726 1700,240 C1700,306.274 1753.726,360 1820,360 C1886.274,360 1940,306.274 1940,240 z" fill-opacity="0" stroke="#3F3F3F" stroke-width="1"/>
    </g>
    <g>
      <path d="M1940,120 L2060,120 L2060,240 L1940,240 z" fill-opacity="0" stroke="#3F3F3F" stroke-width="1" id="lqtc2gbcns"/>
      <path d="M2180,240 C2180,306.274 2126.274,360 2060,360 C1993.726,360 1940,306.274 1940,240 C1940,173.726 1993.726,120 2060,120 C2126.274,120 2180,173.726 2180,240 z" fill-opacity="0" stroke="#3F3F3F" stroke-width="1"/>
    </g>
    <path d="M2060,240 L1940,240 L1940,360 L2060,360 z" fill-opacity="0" stroke="#3F3F3F" stroke-width="1" id="8ei0e9rqqw"/>
    <g>
      <path d="M1940,480 L1820,480 L1820,360 L1940,360 z" fill-opacity="0" stroke="#3F3F3F" stroke-width="1" id="cpqoobry8x"/>
      <path d="M1700,360 C1700,293.726 1753.726,240 1820,240 C1886.274,240 1940,293.726 1940,360 C1940,426.274 1886.274,480 1820,480 C1753.726,480 1700,426.274 1700,360 z" fill-opacity="0" stroke="#3F3F3F" stroke-width="1"/>
    </g>
    <path d="M2060,360 L1940,360 L1940,480 L2060,480 z" fill-opacity="0" stroke="#3F3F3F" stroke-width="1" id="lbg93pmeyH"/>
    <g>
      <path d="M1940,600 L2060,600 L2060,480 L1940,480 z" fill-opacity="0" stroke="#3F3F3F" stroke-width="1" id="6pptnwqifI"/>
      <path d="M2180,480 C2180,413.726 2126.274,360 2060,360 C1993.726,360 1940,413.726 1940,480 C1940,546.274 1993.726,600 2060,600 C2126.274,600 2180,546.274 2180,480 z" fill-opacity="0" stroke="#3F3F3F" stroke-width="1"/>
    </g>
    <g>
      <path d="M1700,600 L1820,600 L1820,720 L1700,720 z" fill-opacity="0" stroke="#3F3F3F" stroke-width="1" id="b3l7wbjdtK"/>
      <path d="M1940,720 C1940,786.274 1886.274,840 1820,840 C1753.726,840 1700,786.274 1700,720 C1700,653.726 1753.726,600 1820,600 C1886.274,600 1940,653.726 1940,720 z" fill-opacity="0" stroke="#3F3F3F" stroke-width="1"/>
    </g>
    <g>
      <path d="M1700,720 L1580,720 L1580,600 L1700,600 z" fill-opacity="0" stroke="#3F3F3F" stroke-width="1" id="fac8jgqi1S"/>
      <path d="M1460,600 C1460,533.726 1513.726,480 1580,480 C1646.274,480 1700,533.726 1700,600 C1700,666.274 1646.274,720 1580,720 C1513.726,720 1460,666.274 1460,600 z" fill-opacity="0" stroke="#3F3F3F" stroke-width="1"/>
    </g>
    <g>
      <path d="M1940,600 L1820,600 L1820,720 L1940,720 z" fill-opacity="0" stroke="#3F3F3F" stroke-width="1" id="hlo8rllmfY"/>
      <path d="M1700,720 C1700,786.274 1753.726,840 1820,840 C1886.274,840 1940,786.274 1940,720 C1940,653.726 1886.274,600 1820,600 C1753.726,600 1700,653.726 1700,720 z" fill-opacity="0" stroke="#3F3F3F" stroke-width="1"/>
    </g>
    <g>
      <path d="M1940,600 L2060,600 L2060,720 L1940,720 z" fill-opacity="0" stroke="#3F3F3F" stroke-width="1" id="ha12v3f5baa"/>
      <path d="M2180,720 C2180,786.274 2126.274,840 2060,840 C1993.726,840 1940,786.274 1940,720 C1940,653.726 1993.726,600 2060,600 C2126.274,600 2180,653.726 2180,720 z" fill-opacity="0" stroke="#3F3F3F" stroke-width="1"/>
    </g>
    <g>
      <path d="M2180,480 L2060,480 L2060,600 L2180,600 z" fill-opacity="0" stroke="#3F3F3F" stroke-width="1" id="v6p1oucs5ai"/>
      <path d="M1940,600 C1940,666.274 1993.726,720 2060,720 C2126.274,720 2180,666.274 2180,600 C2180,533.726 2126.274,480 2060,480 C1993.726,480 1940,533.726 1940,600 z" fill-opacity="0" stroke="#3F3F3F" stroke-width="1"/>
    </g>
    <g>
      <path d="M2180,720 L2060,720 L2060,600 L2180,600 z" fill-opacity="0" stroke="#3F3F3F" stroke-width="1" id="hpyluaos7ak"/>
      <path d="M1940,600 C1940,533.726 1993.726,480 2060,480 C2126.274,480 2180,533.726 2180,600 C2180,666.274 2126.274,720 2060,720 C1993.726,720 1940,666.274 1940,600 z" fill-opacity="0" stroke="#3F3F3F" stroke-width="1"/>
    </g>
    <g>
      <path d="M2180,0 L2060,0 L2060,120 L2180,120 z" fill-opacity="0" stroke="#3F3F3F" stroke-width="1" id="h76ysi4a7au"/>
      <path d="M1940,120 C1940,186.274 1993.726,240 2060,240 C2126.274,240 2180,186.274 2180,120 C2180,53.726 2126.274,0 2060,0 C1993.726,0 1940,53.726 1940,120 z" fill-opacity="0" stroke="#3F3F3F" stroke-width="1"/>
    </g>
    <g>
      <path d="M2180,240 L2060,240 L2060,120 L2180,120 z" fill-opacity="0" stroke="#3F3F3F" stroke-width="1" id="41762m948aw"/>
      <path d="M1940,120 C1940,53.726 1993.726,0 2060,0 C2126.274,-0 2180,53.726 2180,120 C2180,186.274 2126.274,240 2060,240 C1993.726,240 1940,186.274 1940,120 z" fill-opacity="0" stroke="#3F3F3F" stroke-width="1"/>
    </g>
    <g>
      <path d="M1820,120 L1940,120 L1940,240 L1820,240 z" fill-opacity="0" stroke="#3F3F3F" stroke-width="1" id="aar2mjr56aC"/>
      <path d="M2060,240 C2060,306.274 2006.274,360 1940,360 C1873.726,360 1820,306.274 1820,240 C1820,173.726 1873.726,120 1940,120 C2006.274,120 2060,173.726 2060,240 z" fill-opacity="0" stroke="#3F3F3F" stroke-width="1"/>
    </g>
    <g>
      <path d="M1820,240 L1940,240 L1940,360 L1820,360 z" fill-opacity="0" stroke="#3F3F3F" stroke-width="1" id="jd1bk6siwaE"/>
      <path d="M2060,360 C2060,426.274 2006.274,480 1940,480 C1873.726,480 1820,426.274 1820,360 C1820,293.726 1873.726,240 1940,240 C2006.274,240 2060,293.726 2060,360 z" fill-opacity="0" stroke="#3F3F3F" stroke-width="1"/>
    </g>
    <path d="M1580,-0 L1700,-0 L1700,120 L1580,120 z" fill-opacity="0" stroke="#3F3F3F" stroke-width="1" id="h570x92u5aG"/>
    <path d="M1820,120 C1820,186.274 1766.274,240 1700,240 C1633.726,240 1580,186.274 1580,120 C1580,53.726 1633.726,-0 1700,-0 C1766.274,-0 1820,53.726 1820,120 z" fill-opacity="0" stroke="#3F3F3F" stroke-width="1"/>
    <g>
      <path d="M1700,120 L1820,120 L1820,0 L1700,0 z" fill-opacity="0" stroke="#3F3F3F" stroke-width="1" id="77vf4pbwzaI"/>
      <path d="M1940,0 C1940,-66.274 1886.274,-120 1820,-120 C1753.726,-120 1700,-66.274 1700,0 C1700,66.274 1753.726,120 1820,120 C1886.274,120 1940,66.274 1940,0 z" fill-opacity="0" stroke="#3F3F3F" stroke-width="1"/>
    </g>
    <g>
      <path d="M1820,120 L1940,120 L1940,0 L1820,0 z" fill-opacity="0" stroke="#3F3F3F" stroke-width="1" id="m9rqpiw5vaK"/>
      <path d="M2060,0 C2060,-66.274 2006.274,-120 1940,-120 C1873.726,-120 1820,-66.274 1820,0 C1820,66.274 1873.726,120 1940,120 C2006.274,120 2060,66.274 2060,0 z" fill-opacity="0" stroke="#3F3F3F" stroke-width="1"/>
    </g>
    <g>
      <path d="M1940,120 L2060,120 L2060,0 L1940,0 z" fill-opacity="0" stroke="#3F3F3F" stroke-width="1" id="ol8rwybr1aM"/>
      <path d="M2180,0 C2180,-66.274 2126.274,-120 2060,-120 C1993.726,-120 1940,-66.274 1940,0 C1940,66.274 1993.726,120 2060,120 C2126.274,120 2180,66.274 2180,0 z" fill-opacity="0" stroke="#3F3F3F" stroke-width="1"/>
    </g>
    <g>
      <path d="M2180,360 C2180,426.274 2126.274,480 2060,480 C1993.726,480 1940,426.274 1940,360 C1940,293.726 1993.726,240 2060,240 C2126.274,240 2180,293.726 2180,360 z" fill-opacity="0" stroke="#3F3F3F" stroke-width="1"/>
    </g>
    <path d="M0,0 L620,0 L620,720 L0,720 z" fill="#F3F3F3"/>
    <g>
      <path d="M20,120 L140,120 L140,240 L20,240 z" fill-opacity="0" stroke="#3F3F3F" stroke-width="1" id="lqtc2gbcns"/>
      <path d="M260,240 C260,306.274 206.274,360 140,360 C73.726,360 20,306.274 20,240 C20,173.726 73.726,120 140,120 C206.274,120 260,173.726 260,240 z" fill-opacity="0" stroke="#3F3F3F" stroke-width="1"/>
    </g>
    <g>
      <path d="M620,0 L500,0 L500,120 L620,120 z" fill-opacity="0" stroke="#3F3F3F" stroke-width="1" id="ojz69ash2u"/>
      <path d="M380,120 C380,186.274 433.726,240 500,240 C566.274,240 620,186.274 620,120 C620,53.726 566.274,0 500,0 C433.726,0 380,53.726 380,120 z" fill-opacity="0" stroke="#3F3F3F" stroke-width="1"/>
    </g>
    <g>
      <path d="M500,480 L620,480 L620,600 L500,600 z" fill-opacity="0" stroke="#3F3F3F" stroke-width="1" id="nexklpuonz"/>
      <path d="M740,600 C740,666.274 686.274,720 620,720 C553.726,720 500,666.274 500,600 C500,533.726 553.726,480 620,480 C686.274,480 740,533.726 740,600 z" fill-opacity="0" stroke="#3F3F3F" stroke-width="1"/>
    </g>
    <g>
      <path d="M500,600 L380,600 L380,720 L500,720 z" fill-opacity="0" stroke="#3F3F3F" stroke-width="1" id="h6003abnjB"/>
      <path d="M260,720 C260,786.274 313.726,840 380,840 C446.274,840 500,786.274 500,720 C500,653.726 446.274,600 380,600 C313.726,600 260,653.726 260,720 z" fill-opacity="0" stroke="#3F3F3F" stroke-width="1"/>
    </g>
    <g>
      <path d="M260,720 L380,720 L380,600 L260,600 z" fill-opacity="0" stroke="#3F3F3F" stroke-width="1" id="zrgoq5qt4D"/>
      <path d="M500,600 C500,533.726 446.274,480 380,480 C313.726,480 260,533.726 260,600 C260,666.274 313.726,720 380,720 C446.274,720 500,666.274 500,600 z" fill-opacity="0" stroke="#3F3F3F" stroke-width="1"/>
    </g>
    <path d="M140,240 L260,240 L260,360 L140,360 z" fill-opacity="0" stroke="#3F3F3F" stroke-width="1" id="vuwm5z6ktF"/>
    <path d="M140,480 L260,480 L260,360 L140,360 z" fill-opacity="0" stroke="#3F3F3F" stroke-width="1" id="1dv9l4rrjG"/>
    <g>
      <path d="M20,600 L140,600 L140,480 L20,480 z" fill-opacity="0" stroke="#3F3F3F" stroke-width="1" id="6pptnwqifI"/>
      <path d="M260,480 C260,413.726 206.274,360 140,360 C73.726,360 20,413.726 20,480 C20,546.274 73.726,600 140,600 C206.274,600 260,546.274 260,480 z" fill-opacity="0" stroke="#3F3F3F" stroke-width="1"/>
    </g>
    <g>
      <path d="M260,240 L380,240 L380,360 L260,360 z" fill-opacity="0" stroke="#3F3F3F" stroke-width="1" id="ocqztyhecM"/>
      <path d="M500,360 C500,426.274 446.274,480 380,480 C313.726,480 260,426.274 260,360 C260,293.726 313.726,240 380,240 C446.274,240 500,293.726 500,360 z" fill-opacity="0" stroke="#3F3F3F" stroke-width="1"/>
    </g>
    <g>
      <path d="M260,480 L380,480 L380,360 L260,360 z" fill-opacity="0" stroke="#3F3F3F" stroke-width="1" id="hdv1n3wg3O"/>
      <path d="M500,360 C500,293.726 446.274,240 380,240 C313.726,240 260,293.726 260,360 C260,426.274 313.726,480 380,480 C446.274,480 500,426.274 500,360 z" fill-opacity="0" stroke="#3F3F3F" stroke-width="1"/>
    </g>
    <path d="M140,240 C140,306.274 193.726,360 260,360 C326.274,360 380,306.274 380,240 C380,173.726 326.274,120 260,120 C193.726,120 140,173.726 140,240 z" fill-opacity="0" stroke="#3F3F3F" stroke-width="1"/>
    <g>
      <path d="M380,120 L500,120 L500,240 L380,240 z" fill-opacity="0" stroke="#3F3F3F" stroke-width="1" id="v9skiomqrU"/>
      <path d="M620,240 C620,306.274 566.274,360 500,360 C433.726,360 380,306.274 380,240 C380,173.726 433.726,120 500,120 C566.274,120 620,173.726 620,240 z" fill-opacity="0" stroke="#3F3F3F" stroke-width="1"/>
    </g>
    <g>
      <path d="M500,120 L620,120 L620,240 L500,240 z" fill-opacity="0" stroke="#3F3F3F" stroke-width="1" id="4f2c824raW"/>
      <path d="M740,240 C740,306.274 686.274,360 620,360 C553.726,360 500,306.274 500,240 C500,173.726 553.726,120 620,120 C686.274,120 740,173.726 740,240 z" fill-opacity="0" stroke="#3F3F3F" stroke-width="1"/>
    </g>
    <g>
      <path d="M20,600 L140,600 L140,720 L20,720 z" fill-opacity="0" stroke="#3F3F3F" stroke-width="1" id="ha12v3f5baa"/>
      <path d="M260,720 C260,786.274 206.274,840 140,840 C73.726,840 20,786.274 20,720 C20,653.726 73.726,600 140,600 C206.274,600 260,653.726 260,720 z" fill-opacity="0" stroke="#3F3F3F" stroke-width="1"/>
    </g>
    <g>
      <path d="M260,480 L380,480 L380,600 L260,600 z" fill-opacity="0" stroke="#3F3F3F" stroke-width="1" id="3yrn583iwac"/>
      <path d="M500,600 C500,666.274 446.274,720 380,720 C313.726,720 260,666.274 260,600 C260,533.726 313.726,480 380,480 C446.274,480 500,533.726 500,600 z" fill-opacity="0" stroke="#3F3F3F" stroke-width="1"/>
    </g>
    <g>
      <path d="M500,360 L620,360 L620,240 L500,240 z" fill-opacity="0" stroke="#3F3F3F" stroke-width="1" id="6g4mogsfiae"/>
      <path d="M740,240 C740,173.726 686.274,120 620,120 C553.726,120 500,173.726 500,240 C500,306.274 553.726,360 620,360 C686.274,360 740,306.274 740,240 z" fill-opacity="0" stroke="#3F3F3F" stroke-width="1"/>
    </g>
    <g>
      <path d="M620,480 L500,480 L500,360 L620,360 z" fill-opacity="0" stroke="#3F3F3F" stroke-width="1" id="7a2g74xx6ag"/>
      <path d="M380,360 C380,293.726 433.726,240 500,240 C566.274,240 620,293.726 620,360 C620,426.274 566.274,480 500,480 C433.726,480 380,426.274 380,360 z" fill-opacity="0" stroke="#3F3F3F" stroke-width="1"/>
    </g>
    <g>
      <path d="M260,480 L140,480 L140,600 L260,600 z" fill-opacity="0" stroke="#3F3F3F" stroke-width="1" id="v6p1oucs5ai"/>
      <path d="M20,600 C20,666.274 73.726,720 140,720 C206.274,720 260,666.274 260,600 C260,533.726 206.274,480 140,480 C73.726,480 20,533.726 20,600 z" fill-opacity="0" stroke="#3F3F3F" stroke-width="1"/>
    </g>
    <g>
      <path d="M260,720 L140,720 L140,600 L260,600 z" fill-opacity="0" stroke="#3F3F3F" stroke-width="1" id="hpyluaos7ak"/>
      <path d="M20,600 C20,533.726 73.726,480 140,480 C206.274,480 260,533.726 260,600 C260,666.274 206.274,720 140,720 C73.726,720 20,666.274 20,600 z" fill-opacity="0" stroke="#3F3F3F" stroke-width="1"/>
    </g>
    <g>
      <path d="M500,600 L380,600 L380,480 L500,480 z" fill-opacity="0" stroke="#3F3F3F" stroke-width="1" id="s68yinn5lam"/>
      <path d="M260,480 C260,413.726 313.726,360 380,360 C446.274,360 500,413.726 500,480 C500,546.274 446.274,600 380,600 C313.726,600 260,546.274 260,480 z" fill-opacity="0" stroke="#3F3F3F" stroke-width="1"/>
    </g>
    <g>
      <path d="M380,240 L500,240 L500,360 L380,360 z" fill-opacity="0" stroke="#3F3F3F" stroke-width="1" id="ogbl3ufrxao"/>
      <path d="M620,360 C620,426.274 566.274,480 500,480 C433.726,480 380,426.274 380,360 C380,293.726 433.726,240 500,240 C566.274,240 620,293.726 620,360 z" fill-opacity="0" stroke="#3F3F3F" stroke-width="1"/>
    </g>
    <g>
      <path d="M380,480 L500,480 L500,360 L380,360 z" fill-opacity="0" stroke="#3F3F3F" stroke-width="1" id="rpxia5w8raq"/>
      <path d="M620,360 C620,293.726 566.274,240 500,240 C433.726,240 380,293.726 380,360 C380,426.274 433.726,480 500,480 C566.274,480 620,426.274 620,360 z" fill-opacity="0" stroke="#3F3F3F" stroke-width="1"/>
    </g>
    <g>
      <path d="M620,720 L500,720 L500,600 L620,600 z" fill-opacity="0" stroke="#3F3F3F" stroke-width="1" id="pfjjtsjaias"/>
      <path d="M380,600 C380,533.726 433.726,480 500,480 C566.274,480 620,533.726 620,600 C620,666.274 566.274,720 500,720 C433.726,720 380,666.274 380,600 z" fill-opacity="0" stroke="#3F3F3F" stroke-width="1"/>
    </g>
    <g>
      <path d="M260,0 L140,0 L140,120 L260,120 z" fill-opacity="0" stroke="#3F3F3F" stroke-width="1" id="h76ysi4a7au"/>
      <path d="M20,120 C20,186.274 73.726,240 140,240 C206.274,240 260,186.274 260,120 C260,53.726 206.274,0 140,0 C73.726,0 20,53.726 20,120 z" fill-opacity="0" stroke="#3F3F3F" stroke-width="1"/>
    </g>
    <g>
      <path d="M260,240 L140,240 L140,120 L260,120 z" fill-opacity="0" stroke="#3F3F3F" stroke-width="1" id="41762m948aw"/>
      <path d="M20,120 C20,53.726 73.726,0 140,0 C206.274,-0 260,53.726 260,120 C260,186.274 206.274,240 140,240 C73.726,240 20,186.274 20,120 z" fill-opacity="0" stroke="#3F3F3F" stroke-width="1"/>
    </g>
    <g>
      <path d="M500,0 L380,0 L380,120 L500,120 z" fill-opacity="0" stroke="#3F3F3F" stroke-width="1" id="bdc0cbd1tay"/>
      <path d="M260,120 C260,186.274 313.726,240 380,240 C446.274,240 500,186.274 500,120 C500,53.726 446.274,0 380,0 C313.726,0 260,53.726 260,120 z" fill-opacity="0" stroke="#3F3F3F" stroke-width="1"/>
    </g>
    <g>
      <path d="M380,0 L260,0 L260,120 L380,120 z" fill-opacity="0" stroke="#3F3F3F" stroke-width="1" id="5kc39eg2saA"/>
      <path d="M140,120 C140,186.274 193.726,240 260,240 C326.274,240 380,186.274 380,120 C380,53.726 326.274,0 260,0 C193.726,0 140,53.726 140,120 z" fill-opacity="0" stroke="#3F3F3F" stroke-width="1"/>
    </g>
    <g>
      <path d="M20,120 L140,120 L140,0 L20,0 z" fill-opacity="0" stroke="#3F3F3F" stroke-width="1" id="ol8rwybr1aM"/>
      <path d="M260,0 C260,-66.274 206.274,-120 140,-120 C73.726,-120 20,-66.274 20,0 C20,66.274 73.726,120 140,120 C206.274,120 260,66.274 260,0 z" fill-opacity="0" stroke="#3F3F3F" stroke-width="1"/>
    </g>
    <g>
      <path d="M260,360 C260,426.274 206.274,480 140,480 C73.726,480 20,426.274 20,360 C20,293.726 73.726,240 140,240 C206.274,240 260,293.726 260,360 z" fill-opacity="0" stroke="#3F3F3F" stroke-width="1"/>
    </g>
    <path d="M1580,-0 L2190,-0 L2190,720 L1580,720 z" fill="url(#Gradient_1)"/>
    <path d="M0,-0 L620,-0 L620,720 L0,720 z" fill="url(#Gradient_2)"/>
  </g>
</svg>
